<svg width="25" height="25" viewBox="0 0 25 25" fill="none" xmlns="http://www.w3.org/2000/svg">
<mask id="mask0_1001_611" style="mask-type:alpha" maskUnits="userSpaceOnUse" x="0" y="0" width="25" height="25">
<rect x="0.73938" y="0.67041" width="24" height="24" fill="#D9D9D9"/>
</mask>
<g mask="url(#mask0_1001_611)">
<path d="M20.3394 21.6704L14.0394 15.3704C13.5394 15.7704 12.9644 16.0871 12.3144 16.3204C11.6644 16.5537 10.9727 16.6704 10.2394 16.6704C8.42271 16.6704 6.88521 16.0412 5.62688 14.7829C4.36855 13.5246 3.73938 11.9871 3.73938 10.1704C3.73938 8.35374 4.36855 6.81624 5.62688 5.55791C6.88521 4.29958 8.42271 3.67041 10.2394 3.67041C12.056 3.67041 13.5935 4.29958 14.8519 5.55791C16.1102 6.81624 16.7394 8.35374 16.7394 10.1704C16.7394 10.9037 16.6227 11.5954 16.3894 12.2454C16.156 12.8954 15.8394 13.4704 15.4394 13.9704L21.7394 20.2704L20.3394 21.6704ZM10.2394 14.6704C11.4894 14.6704 12.5519 14.2329 13.4269 13.3579C14.3019 12.4829 14.7394 11.4204 14.7394 10.1704C14.7394 8.92041 14.3019 7.85791 13.4269 6.98291C12.5519 6.10791 11.4894 5.67041 10.2394 5.67041C8.98938 5.67041 7.92688 6.10791 7.05188 6.98291C6.17688 7.85791 5.73938 8.92041 5.73938 10.1704C5.73938 11.4204 6.17688 12.4829 7.05188 13.3579C7.92688 14.2329 8.98938 14.6704 10.2394 14.6704Z" fill="white"/>
</g>
</svg>
